<svg width="256" height="250" viewBox="0 0 256 250" fill="none" xmlns="http://www.w3.org/2000/svg">
<g clip-path="url(#clip0_194_44)">
<path d="M10.6982 11.0707H244.945V238.929H10.6982V11.0707Z" fill="#1C0A00"/>
<path d="M10.6985 11.0707H244.946V238.929H10.6985V11.0707ZM0.0292969 249.58H255.578V0.4198H0.0292969V249.58ZM167.414 89.2231C167.414 88.3743 167.733 87.9454 168.692 87.9454H185.412C186.261 87.9454 186.69 88.2648 186.69 89.2231V173.235C186.69 174.084 186.48 174.513 185.412 174.513H168.92C167.852 174.513 167.533 173.983 167.533 173.125V89.2231H167.423H167.414ZM166.246 65.0555C166.246 62.175 167.39 59.4125 169.427 57.3757C171.464 55.3389 174.226 54.1946 177.107 54.1946C179.987 54.1946 182.75 55.3389 184.786 57.3757C186.823 59.4125 187.967 62.175 187.967 65.0555C188.073 66.5269 187.857 68.0037 187.335 69.3834C186.812 70.7631 185.997 72.0129 184.944 73.046C183.89 74.0791 182.625 74.8709 181.236 75.3665C179.846 75.8621 178.366 76.0497 176.897 75.9163C175.457 76.0066 174.015 75.7857 172.669 75.2686C171.322 74.7515 170.103 73.9504 169.094 72.9198C168.085 71.8891 167.31 70.6532 166.822 69.2961C166.333 67.9391 166.143 66.4927 166.264 65.0555H166.246ZM118.33 124.261C115.346 112.396 108.291 86.6767 105.662 74.2187H105.452C103.216 86.6767 97.576 107.76 93.1039 124.261H118.33ZM88.7322 141.51L80.3173 173.454C80.1074 174.303 79.788 174.522 78.7202 174.522H63.086C62.0182 174.522 61.8083 174.202 62.0182 172.925L92.2551 67.0542C92.9911 64.1678 93.35 61.1982 93.323 58.2195C93.323 57.4711 93.6424 57.1517 94.1717 57.1517H116.532C117.281 57.1517 117.6 57.3616 117.81 58.2195L151.67 173.107C151.88 173.956 151.67 174.494 150.822 174.494H133.143C132.294 174.494 131.756 174.284 131.546 173.582L122.812 141.529H88.7413L88.7322 141.51Z" fill="#FF7F18"/>
</g>
<defs>
<clipPath id="clip0_194_44">
<rect width="254.673" height="250" fill="white" transform="translate(0.466797)"/>
</clipPath>
</defs>
</svg>
