<svg width="315" height="250" viewBox="0 0 315 250" fill="none" xmlns="http://www.w3.org/2000/svg">
<g clip-path="url(#clip0_194_29)">
<path d="M65.6149 0C47.7142 0 34.4678 15.6679 35.061 32.6593C35.6308 48.9828 34.8906 70.1262 29.5683 87.3676C24.2301 104.659 15.2007 115.613 0.453125 117.02V132.897C15.2007 134.304 24.2301 145.257 29.5683 162.55C34.8906 179.792 35.6308 200.933 35.061 217.257C34.4678 234.246 47.7142 249.917 65.6173 249.917H249.04C266.942 249.917 280.185 234.249 279.592 217.257C279.023 200.934 279.762 179.792 285.084 162.55C290.426 145.259 299.431 134.303 314.179 132.897V117.02C299.431 115.613 290.426 104.659 285.085 87.3676C279.762 70.1287 279.023 48.9841 279.592 32.6593C280.185 15.6703 266.942 0 249.04 0H65.6124H65.6149V0ZM213.149 153.839C213.149 177.237 195.698 191.425 166.737 191.425H117.436C116.026 191.425 114.674 190.865 113.677 189.867C112.68 188.87 112.12 187.518 112.12 186.108V63.8088C112.12 63.1104 112.257 62.4188 112.524 61.7736C112.791 61.1283 113.183 60.542 113.677 60.0481C114.171 59.5542 114.757 59.1624 115.402 58.8951C116.047 58.6278 116.739 58.4902 117.437 58.4902H166.456C190.604 58.4902 206.452 71.5723 206.452 91.6556C206.452 105.752 195.79 118.373 182.208 120.582V121.319C200.699 123.347 213.149 136.152 213.149 153.839V153.839ZM161.36 75.3468H133.251V115.053H156.927C175.229 115.053 185.322 107.683 185.322 94.5086C185.322 82.1642 176.643 75.3468 161.361 75.3468H161.36ZM133.251 130.808V174.564H162.396C181.449 174.564 191.545 166.918 191.545 152.548C191.545 138.175 181.169 130.805 161.17 130.805H133.251V130.808Z" fill="#7E13F8"/>
</g>
<defs>
<clipPath id="clip0_194_29">
<rect width="313.725" height="250" fill="white" transform="translate(0.453125)"/>
</clipPath>
</defs>
</svg>
