<svg width="220" height="250" viewBox="0 0 220 250" fill="none" xmlns="http://www.w3.org/2000/svg">
<g clip-path="url(#clip0_194_9)">
<path d="M19.7536 224.964L-0.291016 0.055603H220.039L199.968 224.929L109.74 249.944L19.7536 224.964Z" fill="#1572B6"/>
<path d="M109.875 230.828L182.789 210.614L199.942 18.4492H109.875V230.828Z" fill="#33A9DC"/>
<path d="M109.875 99.9309H146.377L148.893 71.6845H109.875V44.0986H179.041L178.38 51.4971L171.606 127.517H109.875V99.9309V99.9309Z" fill="white"/>
<path d="M110.045 171.569L109.92 171.604L79.2014 163.304L77.238 141.305H49.5449L53.4093 184.616L109.911 200.306L110.045 200.27V171.569V171.569Z" fill="#EBEBEB"/>
<path d="M144.029 126.348L140.709 163.286L109.946 171.586V200.288L166.493 184.616L166.912 179.958L171.705 126.348H144.029V126.348Z" fill="white"/>
<path d="M109.973 44.0986V71.6845H43.3422L42.7889 65.4819L41.5305 51.4971L40.8701 44.0986H109.973V44.0986ZM109.875 99.9309V127.517H79.5404L78.9871 121.314L77.7376 107.329L77.0772 99.9309H109.875V99.9309Z" fill="#EBEBEB"/>
</g>
<defs>
<clipPath id="clip0_194_9">
<rect width="219.751" height="250" fill="white"/>
</clipPath>
</defs>
</svg>
