<svg width="168" height="250" viewBox="0 0 168 250" fill="none" xmlns="http://www.w3.org/2000/svg">
<g clip-path="url(#clip0_194_38)">
<path d="M42.4665 250C65.4665 250 84.1331 231.333 84.1331 208.333V166.667H42.4665C19.4665 166.667 0.799805 185.333 0.799805 208.333C0.799805 231.333 19.4665 250 42.4665 250Z" fill="#0ACF83"/>
<path d="M0.799805 125C0.799805 102 19.4665 83.3333 42.4665 83.3333H84.1331V166.667H42.4665C19.4665 166.667 0.799805 148 0.799805 125Z" fill="#A259FF"/>
<path d="M0.799805 41.6667C0.799805 18.6667 19.4665 0 42.4665 0H84.1331V83.3333H42.4665C19.4665 83.3333 0.799805 64.6667 0.799805 41.6667Z" fill="#F24E1E"/>
<path d="M84.1328 0H125.799C148.799 0 167.466 18.6667 167.466 41.6667C167.466 64.6667 148.799 83.3333 125.799 83.3333H84.1328V0Z" fill="#FF7262"/>
<path d="M167.466 125C167.466 148 148.799 166.667 125.799 166.667C102.799 166.667 84.1328 148 84.1328 125C84.1328 102 102.799 83.3333 125.799 83.3333C148.799 83.3333 167.466 102 167.466 125Z" fill="#1ABCFE"/>
</g>
<defs>
<clipPath id="clip0_194_38">
<rect width="166.667" height="250" fill="white" transform="translate(0.799805)"/>
</clipPath>
</defs>
</svg>
