<svg width="251" height="250" viewBox="0 0 251 250" fill="none" xmlns="http://www.w3.org/2000/svg">
<g clip-path="url(#clip0_194_36)">
<path d="M8.11539 107.346L80.4812 34.8551L101.64 56.1391C98.6352 66.7812 103.518 78.4248 113.284 84.0588V153.42C105.772 157.677 100.764 165.815 100.764 175.079C100.764 181.72 103.402 188.09 108.098 192.785C112.794 197.481 119.163 200.12 125.804 200.12C132.445 200.12 138.814 197.481 143.51 192.785C148.206 188.09 150.844 181.72 150.844 175.079C150.844 165.815 145.836 157.677 138.324 153.42V92.5724L164.24 118.739C163.364 120.617 163.364 122.746 163.364 124.999C163.364 131.64 166.002 138.009 170.698 142.705C175.394 147.401 181.763 150.039 188.404 150.039C195.045 150.039 201.414 147.401 206.11 142.705C210.806 138.009 213.444 131.64 213.444 124.999C213.444 118.358 210.806 111.989 206.11 107.293C201.414 102.597 195.045 99.9592 188.404 99.9592C186.15 99.9592 184.022 99.9592 182.144 100.836L149.967 68.6592C151.522 62.8603 150.919 56.6944 148.271 51.3063C145.623 45.9182 141.11 41.6742 135.569 39.3623C130.186 37.3591 124.552 36.8583 119.544 38.2355L98.2596 17.0766L108.15 7.311C117.916 -2.57982 133.691 -2.57982 143.457 7.311L243.492 107.346C253.383 117.112 253.383 132.887 243.492 142.653L143.457 242.688C133.691 252.578 117.916 252.578 108.15 242.688L8.11539 142.653C-1.77544 132.887 -1.77544 117.112 8.11539 107.346Z" fill="#F24E1E"/>
</g>
<defs>
<clipPath id="clip0_194_36">
<rect width="250" height="250" fill="white" transform="translate(0.799805)"/>
</clipPath>
</defs>
</svg>
