<svg width="220" height="250" viewBox="0 0 220 250" fill="none" xmlns="http://www.w3.org/2000/svg">
<g clip-path="url(#clip0_194_3)">
<path d="M19.8204 224.509L-0.246094 -0.5H220.244L200.151 224.473L109.865 249.5L19.8204 224.509Z" fill="#E44F26"/>
<path d="M110 241.197L190.419 218.907L209.337 7.00543H110V241.197Z" fill="#F1662A"/>
<path d="M110 98.9817H69.7419L66.9661 67.8342H110V37.4149H33.7158L34.4442 45.5831L41.9152 129.401H110V98.9817V98.9817ZM110 177.977L109.863 178.017L75.9824 168.874L73.8169 144.615H43.2735L47.5357 192.365L109.863 209.666L110 209.627V177.977Z" fill="#EBEBEB"/>
<path d="M109.892 98.9817V129.401H147.355L143.831 168.854L109.892 178.007V209.656L172.268 192.365L172.721 187.228L179.867 107.15L180.615 98.9817H109.892V98.9817ZM109.892 37.4149V67.8342H183.381L183.991 61.0043L185.379 45.5831L186.107 37.4149H109.892V37.4149Z" fill="white"/>
</g>
<defs>
<clipPath id="clip0_194_3">
<rect width="220" height="250" fill="white"/>
</clipPath>
</defs>
</svg>
