<svg width="251" height="250" viewBox="0 0 251 250" fill="none" xmlns="http://www.w3.org/2000/svg">
<g clip-path="url(#clip0_194_16)">
<path d="M0.750977 0H250.751V250H0.750977V0Z" fill="#F7DF1E"/>
<path d="M66.4854 208.918L85.6162 197.34C89.3076 203.884 92.665 209.421 100.719 209.421C108.438 209.421 113.307 206.401 113.307 194.655V114.774H136.8V194.987C136.8 219.32 122.536 230.396 101.726 230.396C82.9316 230.396 72.0225 220.663 66.4844 208.916M149.561 206.4L168.689 195.325C173.726 203.549 180.271 209.59 191.849 209.59C201.584 209.59 207.791 204.723 207.791 198.01C207.791 189.955 201.414 187.101 190.674 182.404L184.802 179.885C167.852 172.671 156.608 163.608 156.608 144.477C156.608 126.856 170.033 113.431 191.011 113.431C205.946 113.431 216.687 118.634 224.405 132.226L206.112 143.975C202.084 136.759 197.723 133.906 191.01 133.906C184.129 133.906 179.766 138.269 179.766 143.975C179.766 151.022 184.129 153.877 194.197 158.24L200.07 160.757C220.041 169.316 231.284 178.042 231.284 197.675C231.284 218.821 214.671 230.399 192.352 230.399C170.536 230.399 156.439 219.995 149.56 206.401" fill="black"/>
</g>
<defs>
<clipPath id="clip0_194_16">
<rect width="250" height="250" fill="white" transform="translate(0.750977)"/>
</clipPath>
</defs>
</svg>
