<svg width="120" height="22" viewBox="0 0 120 22" fill="none" xmlns="http://www.w3.org/2000/svg">
<path d="M18.7372 7.76562H14.3821C14.3026 7.20218 14.1402 6.7017 13.8949 6.2642C13.6496 5.82007 13.3348 5.44223 12.9503 5.13068C12.5658 4.81913 12.1217 4.58049 11.6179 4.41477C11.1207 4.24905 10.5805 4.16619 9.99716 4.16619C8.94318 4.16619 8.0251 4.42803 7.2429 4.9517C6.4607 5.46875 5.85417 6.22443 5.4233 7.21875C4.99242 8.20644 4.77699 9.40625 4.77699 10.8182C4.77699 12.2699 4.99242 13.4896 5.4233 14.4773C5.8608 15.465 6.47064 16.2107 7.25284 16.7145C8.03504 17.2183 8.93987 17.4702 9.96733 17.4702C10.544 17.4702 11.0777 17.3939 11.5682 17.2415C12.0653 17.089 12.5062 16.867 12.8906 16.5753C13.2751 16.277 13.5933 15.9157 13.8452 15.4915C14.1037 15.0672 14.2827 14.5833 14.3821 14.0398L18.7372 14.0597C18.6245 14.9943 18.3428 15.8958 17.892 16.7642C17.4479 17.6259 16.848 18.3982 16.0923 19.081C15.3433 19.7571 14.4484 20.294 13.4077 20.6918C12.3736 21.0829 11.2036 21.2784 9.89773 21.2784C8.08144 21.2784 6.45739 20.8674 5.02557 20.0455C3.60038 19.2235 2.47348 18.0336 1.64489 16.4759C0.822917 14.9181 0.411932 13.0322 0.411932 10.8182C0.411932 8.59754 0.829546 6.70833 1.66477 5.15057C2.5 3.5928 3.63352 2.40625 5.06534 1.59091C6.49716 0.768939 8.10795 0.357954 9.89773 0.357954C11.0777 0.357954 12.1714 0.523674 13.179 0.855113C14.1932 1.18655 15.0914 1.67045 15.8736 2.30682C16.6558 2.93655 17.2921 3.70881 17.7827 4.62358C18.2798 5.53835 18.598 6.5857 18.7372 7.76562ZM22.2446 21V0.636363H26.55V9.03835H35.29V0.636363H39.5855V21H35.29V12.5881H26.55V21H22.2446ZM43.5552 21V0.636363H51.5893C53.1272 0.636363 54.4397 0.911458 55.5268 1.46165C56.6205 2.00521 57.4525 2.77746 58.0225 3.77841C58.5992 4.77273 58.8876 5.94271 58.8876 7.28835C58.8876 8.64062 58.5959 9.80398 58.0126 10.7784C57.4293 11.7462 56.5841 12.4886 55.4771 13.0057C54.3767 13.5227 53.0443 13.7812 51.4799 13.7812H46.1007V10.321H50.7839C51.6059 10.321 52.2886 10.2083 52.8322 9.98295C53.3757 9.75758 53.7801 9.41951 54.0453 8.96875C54.317 8.51799 54.4529 7.95786 54.4529 7.28835C54.4529 6.61222 54.317 6.04214 54.0453 5.57812C53.7801 5.11411 53.3724 4.76278 52.8222 4.52415C52.2787 4.27888 51.5926 4.15625 50.764 4.15625H47.8606V21H43.5552ZM54.5524 11.733L59.6134 21H54.8606L49.9089 11.733H54.5524ZM66.6556 0.636363V21H62.3502V0.636363H66.6556ZM81.6647 6.4929C81.5852 5.69081 81.2438 5.06771 80.6406 4.62358C80.0374 4.17945 79.2187 3.95739 78.1846 3.95739C77.482 3.95739 76.8887 4.05682 76.4048 4.25568C75.9209 4.44792 75.5497 4.71638 75.2912 5.06108C75.0393 5.40578 74.9133 5.79688 74.9133 6.23438C74.9001 6.59896 74.9763 6.91714 75.142 7.18892C75.3144 7.4607 75.5497 7.69602 75.848 7.89489C76.1463 8.08712 76.491 8.25615 76.8821 8.40199C77.2732 8.54119 77.6908 8.66051 78.1349 8.75994L79.9644 9.19744C80.8527 9.39631 81.668 9.66146 82.4105 9.9929C83.1529 10.3243 83.7959 10.732 84.3394 11.2159C84.883 11.6998 85.3039 12.2699 85.6022 12.9261C85.9072 13.5824 86.0629 14.3348 86.0696 15.1832C86.0629 16.4295 85.7448 17.5099 85.115 18.4247C84.4919 19.3329 83.5904 20.0388 82.4105 20.5426C81.2372 21.0398 79.8219 21.2884 78.1647 21.2884C76.5208 21.2884 75.089 21.0365 73.8693 20.5327C72.6562 20.0289 71.7083 19.2831 71.0255 18.2955C70.3494 17.3011 69.9947 16.0715 69.9616 14.6065H74.1278C74.1742 15.2893 74.3697 15.8594 74.7144 16.3168C75.0658 16.7675 75.5331 17.1089 76.1164 17.3409C76.7064 17.5663 77.3726 17.679 78.115 17.679C78.8442 17.679 79.4772 17.5729 80.0142 17.3608C80.5577 17.1487 80.9787 16.8537 81.2769 16.4759C81.5752 16.098 81.7244 15.6638 81.7244 15.1733C81.7244 14.7159 81.5885 14.3314 81.3167 14.0199C81.0516 13.7083 80.6605 13.4432 80.1434 13.2244C79.633 13.0057 79.0066 12.8068 78.2642 12.6278L76.0468 12.071C74.33 11.6534 72.9744 11.0005 71.9801 10.1122C70.9858 9.22396 70.4919 8.02746 70.4985 6.52273C70.4919 5.28977 70.82 4.21259 71.4829 3.29119C72.1524 2.36979 73.0705 1.65057 74.2372 1.13352C75.4038 0.616477 76.7296 0.357954 78.2144 0.357954C79.7258 0.357954 81.0449 0.616477 82.1718 1.13352C83.3054 1.65057 84.187 2.36979 84.8167 3.29119C85.4465 4.21259 85.7713 5.27983 85.7912 6.4929H81.6647ZM96.286 21V0.636363H104.439C105.937 0.636363 107.187 0.858428 108.188 1.30256C109.189 1.74669 109.941 2.36316 110.445 3.15199C110.949 3.93419 111.201 4.8357 111.201 5.85653C111.201 6.65199 111.042 7.35133 110.723 7.95455C110.405 8.55114 109.968 9.04167 109.411 9.42614C108.861 9.80398 108.231 10.0724 107.522 10.2315V10.4304C108.297 10.4635 109.023 10.6823 109.699 11.0866C110.382 11.491 110.936 12.0578 111.36 12.7869C111.784 13.5095 111.996 14.3712 111.996 15.3722C111.996 16.4527 111.728 17.4171 111.191 18.2656C110.661 19.1075 109.875 19.7737 108.834 20.2642C107.794 20.7547 106.511 21 104.986 21H96.286ZM100.591 17.4801H104.101C105.301 17.4801 106.176 17.2514 106.726 16.794C107.277 16.33 107.552 15.7135 107.552 14.9446C107.552 14.3812 107.416 13.884 107.144 13.4531C106.872 13.0223 106.484 12.6842 105.981 12.4389C105.483 12.1937 104.89 12.071 104.201 12.071H100.591V17.4801ZM100.591 9.15767H103.783C104.373 9.15767 104.897 9.05492 105.354 8.84943C105.818 8.63731 106.183 8.33902 106.448 7.95455C106.72 7.57008 106.856 7.10938 106.856 6.57244C106.856 5.83665 106.594 5.24337 106.07 4.79261C105.553 4.34186 104.817 4.11648 103.863 4.11648H100.591V9.15767ZM117.614 21.2585C116.958 21.2585 116.394 21.0265 115.924 20.5625C115.46 20.0919 115.228 19.5284 115.228 18.8722C115.228 18.2225 115.46 17.6657 115.924 17.2017C116.394 16.7377 116.958 16.5057 117.614 16.5057C118.25 16.5057 118.807 16.7377 119.284 17.2017C119.762 17.6657 120 18.2225 120 18.8722C120 19.3097 119.888 19.7107 119.662 20.0753C119.444 20.4332 119.155 20.7216 118.797 20.9403C118.439 21.1525 118.045 21.2585 117.614 21.2585Z" fill="white"/>
</svg>
