<svg width="289" height="250" viewBox="0 0 289 250" fill="none" xmlns="http://www.w3.org/2000/svg">
<g clip-path="url(#clip0_194_32)">
<path d="M243.163 170.166C244.381 169.466 245.394 168.459 246.099 167.244C246.805 166.03 247.179 164.651 247.183 163.247L247.328 116.903C247.332 115.499 247.706 114.12 248.411 112.905C249.117 111.69 250.13 110.683 251.348 109.983L276.469 95.553C277.687 94.8537 279.067 94.4867 280.471 94.489C281.875 94.4912 283.254 94.8626 284.469 95.5659C285.684 96.2692 286.693 97.2796 287.395 98.4959C288.096 99.7122 288.466 101.092 288.466 102.496V186.75C288.466 188.159 288.094 189.543 287.388 190.762C286.683 191.981 285.667 192.992 284.446 193.694L189.637 248.15C188.426 248.845 187.054 249.212 185.657 249.213C184.261 249.215 182.888 248.851 181.675 248.158L107.272 205.601C106.047 204.902 105.028 203.89 104.319 202.669C103.61 201.449 103.236 200.063 103.235 198.651V156.167C103.235 156.119 103.291 156.088 103.34 156.11C103.379 156.135 103.436 156.11 103.436 156.054V156.007C103.436 155.975 103.451 155.943 103.484 155.927L164.763 120.723C164.82 120.69 164.795 120.603 164.731 120.603C164.714 120.603 164.697 120.596 164.685 120.584C164.673 120.572 164.666 120.555 164.666 120.538L164.787 78.8875C164.793 77.479 164.427 76.0939 163.726 74.872C163.026 73.65 162.015 72.6345 160.797 71.9278C159.579 71.2211 158.195 70.8483 156.787 70.8469C155.378 70.8456 153.994 71.2158 152.775 71.9202L107.232 98.1645C106.016 98.8644 104.638 99.2328 103.236 99.2328C101.833 99.2328 100.455 98.8644 99.2397 98.1645L53.5527 71.8582C52.3356 71.1572 50.9555 70.7887 49.5509 70.7896C48.1464 70.7905 46.7667 71.1608 45.5505 71.8634C44.3343 72.566 43.3242 73.5761 42.6217 74.7924C41.9193 76.0087 41.549 77.3883 41.5482 78.7929V154.07C41.5493 155.473 41.1817 156.852 40.4823 158.068C39.7828 159.284 38.7761 160.295 37.5629 161C36.3497 161.705 34.9727 162.079 33.5696 162.084C32.1666 162.089 30.7868 161.725 29.5685 161.029L4.21378 146.532C2.98603 145.83 1.96585 144.816 1.25694 143.593C0.548041 142.37 0.17569 140.98 0.177743 139.567L0.402968 7.98998C0.40656 6.58776 0.778293 5.21105 1.48098 3.99759C2.18367 2.78413 3.19267 1.77645 4.40706 1.07537C5.62145 0.374282 6.99864 0.00436578 8.40087 0.00262271C9.8031 0.000879644 11.1812 0.367371 12.3973 1.06544L99.2476 50.9461C100.461 51.6431 101.836 52.0098 103.236 52.0098C104.635 52.0098 106.01 51.6431 107.224 50.9461L194.048 1.06318C195.266 0.363473 196.647 -0.00350189 198.052 -0.000901806C199.457 0.00169828 200.836 0.373781 202.051 1.078C203.267 1.78221 204.276 2.79378 204.977 4.01116C205.678 5.22853 206.046 6.60888 206.045 8.01363V139.621C206.046 141.028 205.675 142.412 204.971 143.631C204.267 144.85 203.254 145.862 202.034 146.564L156.563 172.751C155.341 173.455 154.328 174.469 153.624 175.691C152.92 176.912 152.551 178.298 152.554 179.707C152.557 181.117 152.932 182.501 153.642 183.719C154.351 184.938 155.37 185.947 156.594 186.645L181.677 200.925C182.889 201.615 184.26 201.976 185.655 201.973C187.049 201.97 188.419 201.603 189.628 200.908L243.164 170.165L243.163 170.166ZM248.424 52.1082C248.425 53.5245 248.802 54.9152 249.516 56.1385C250.23 57.3618 251.255 58.3738 252.488 59.0715C253.72 59.7691 255.116 60.1273 256.532 60.1097C257.948 60.092 259.335 59.699 260.549 58.9708L284.574 44.5564C285.76 43.8458 286.742 42.8403 287.424 41.6377C288.106 40.435 288.465 39.0763 288.466 37.6938V8.31881C288.464 6.90317 288.086 5.51346 287.372 4.2913C286.657 3.06914 285.631 2.05821 284.399 1.36152C283.167 0.664825 281.772 0.307271 280.356 0.325288C278.941 0.343306 277.555 0.73625 276.341 1.46408L252.317 15.8785C251.131 16.5891 250.149 17.5947 249.467 18.7976C248.785 20.0004 248.425 21.3594 248.424 22.7422V52.1161V52.1082V52.1082Z" fill="#007FFF"/>
</g>
<defs>
<clipPath id="clip0_194_32">
<rect width="288.288" height="250" fill="white" transform="translate(0.177734)"/>
</clipPath>
</defs>
</svg>
