<svg width="282" height="250" viewBox="0 0 282 250" fill="none" xmlns="http://www.w3.org/2000/svg">
<g clip-path="url(#clip0_194_19)">
<path d="M231.544 80.9472C228.556 79.9223 225.544 78.9728 222.509 78.0996C223.019 76.0163 223.488 73.9581 223.904 71.9362C230.744 38.7334 226.273 11.9845 211 3.17744C196.356 -5.26554 172.408 3.53819 148.221 24.5875C145.838 26.6657 143.507 28.8039 141.231 30.9998C139.708 29.5396 138.157 28.1077 136.581 26.7049C111.232 4.19828 85.8244 -5.28747 70.5679 3.54477C55.9374 12.0141 51.6051 37.1599 57.763 68.627C58.3757 71.7435 59.0674 74.8439 59.8376 77.9252C56.2411 78.9472 52.7707 80.0349 49.4494 81.1928C19.7301 91.5546 0.750977 107.793 0.750977 124.636C0.750977 142.032 21.126 159.48 52.0799 170.06C54.5894 170.914 57.1198 171.706 59.6687 172.434C58.8409 175.753 58.106 179.094 57.4648 182.454C51.5942 213.375 56.1786 237.926 70.7696 246.342C85.8398 255.033 111.134 246.101 135.762 224.571C137.759 222.821 139.712 221.021 141.619 219.173C144.084 221.551 146.614 223.86 149.207 226.096C173.065 246.625 196.626 254.914 211.203 246.476C226.259 237.76 231.152 211.385 224.799 179.296C224.299 176.782 223.738 174.28 223.116 171.794C224.892 171.267 226.636 170.726 228.335 170.162C260.515 159.501 281.453 142.264 281.453 124.636C281.453 107.731 261.861 91.3836 231.544 80.9472V80.9472ZM224.565 158.781C223.029 159.288 221.455 159.778 219.85 160.255C216.297 149.009 211.503 137.05 205.636 124.694C211.235 112.632 215.844 100.827 219.297 89.6533C222.169 90.4845 224.955 91.3606 227.641 92.2849C253.617 101.228 269.461 114.448 269.461 124.636C269.461 135.487 252.35 149.573 224.565 158.781V158.781ZM213.036 181.625C215.845 195.813 216.245 208.642 214.385 218.672C212.714 227.684 209.352 233.692 205.194 236.099C196.349 241.219 177.431 234.563 157.028 217.006C154.616 214.927 152.263 212.78 149.97 210.57C157.88 201.92 165.785 191.864 173.5 180.695C187.07 179.491 199.89 177.522 211.516 174.834C212.076 177.085 212.583 179.35 213.036 181.625V181.625ZM96.4483 235.214C87.8058 238.265 80.922 238.353 76.7608 235.954C67.9067 230.847 64.2258 211.134 69.2466 184.691C69.8434 181.566 70.5268 178.458 71.2959 175.372C82.7937 177.915 95.5207 179.744 109.123 180.847C116.89 191.776 125.023 201.821 133.219 210.617C131.477 212.303 129.694 213.945 127.872 215.543C116.98 225.062 106.067 231.817 96.4483 235.214V235.214ZM55.9593 158.714C42.2718 154.035 30.9681 147.955 23.2203 141.32C16.2576 135.358 12.7433 129.438 12.7433 124.636C12.7433 114.414 27.9812 101.377 53.3968 92.5163C56.4812 91.4417 59.7093 90.4274 63.0591 89.4757C66.5722 100.901 71.1797 112.847 76.74 124.927C71.1073 137.186 66.4341 149.323 62.8869 160.884C60.5603 160.217 58.2504 159.494 55.9593 158.714V158.714ZM69.5317 66.3233C64.2565 39.3638 67.7597 19.0272 76.5766 13.9231C85.967 8.48665 106.732 16.2377 128.619 35.672C130.047 36.9421 131.451 38.238 132.831 39.559C124.675 48.3167 116.617 58.2871 108.919 69.1511C95.717 70.3748 83.0799 72.3397 71.4615 74.9724C70.7457 72.1064 70.1022 69.2228 69.5317 66.3244V66.3233ZM190.614 96.2224C187.87 91.4822 185.024 86.8016 182.078 82.184C191.034 83.3167 199.615 84.82 207.673 86.6577C205.254 94.4121 202.239 102.518 198.69 110.83C196.095 105.907 193.403 101.037 190.614 96.2224V96.2224ZM141.237 48.1292C146.767 54.1215 152.307 60.8112 157.755 68.07C146.703 67.548 135.632 67.5458 124.579 68.0634C130.033 60.8715 135.619 54.1906 141.237 48.1292ZM91.5426 96.3046C88.7886 101.081 86.1465 105.921 83.6183 110.82C80.1271 102.538 77.1391 94.3945 74.6994 86.5305C82.7082 84.7388 91.2488 83.2739 100.148 82.1621C97.1692 86.8079 94.3 91.523 91.5426 96.3035V96.3046ZM100.403 167.963C91.2093 166.936 82.5405 165.547 74.5339 163.804C77.0119 155.799 80.0657 147.482 83.6326 139.023C86.1708 143.926 88.8239 148.769 91.5898 153.547C94.4341 158.459 97.3793 163.271 100.403 167.963ZM141.568 201.987C135.884 195.855 130.215 189.071 124.679 181.775C130.054 181.986 135.533 182.093 141.102 182.093C146.823 182.093 152.479 181.965 158.046 181.717C152.58 189.145 147.061 195.938 141.568 201.987ZM198.803 138.591C202.555 147.143 205.717 155.416 208.228 163.284C200.09 165.141 191.303 166.637 182.044 167.748C185.011 163.044 187.884 158.282 190.661 153.465C193.485 148.568 196.199 143.609 198.803 138.591V138.591ZM180.274 147.474C176.022 154.86 171.531 162.106 166.808 169.2C158.253 169.806 149.679 170.107 141.102 170.103C132.366 170.103 123.869 169.831 115.687 169.3C110.841 162.222 106.264 154.963 101.967 147.539H101.968C97.6909 140.155 93.6957 132.61 89.9911 124.922C93.6862 117.232 97.6693 109.684 101.932 102.294L101.931 102.295C106.192 94.9025 110.732 87.6747 115.542 80.627C123.889 79.9954 132.449 79.6665 141.101 79.6665H141.102C149.793 79.6665 158.364 79.9987 166.709 80.6347C171.47 87.6718 175.982 94.8747 180.235 102.23C184.511 109.604 188.547 117.115 192.335 124.752C188.586 132.467 184.563 140.045 180.274 147.474V147.474ZM205.011 13.5656C214.41 18.9867 218.066 40.8474 212.16 69.5152C211.783 71.3441 211.36 73.207 210.899 75.0963C199.252 72.4077 186.606 70.4088 173.366 69.1665C165.653 58.1829 157.661 48.1972 149.638 39.5524C151.741 37.5256 153.893 35.5513 156.094 33.6314C176.818 15.5974 196.186 8.47678 205.011 13.5656V13.5656ZM141.102 99.57C154.945 99.57 166.168 110.793 166.168 124.636C166.168 138.479 154.945 149.702 141.102 149.702C127.259 149.702 116.036 138.479 116.036 124.636C116.036 110.793 127.259 99.57 141.102 99.57V99.57Z" fill="#00D8FF"/>
</g>
<defs>
<clipPath id="clip0_194_19">
<rect width="280.702" height="250" fill="white" transform="translate(0.750977)"/>
</clipPath>
</defs>
</svg>
