<svg width="334" height="250" viewBox="0 0 334 250" fill="none" xmlns="http://www.w3.org/2000/svg">
<g clip-path="url(#clip0_194_34)">
<path d="M287.292 143.898C275.696 143.958 265.616 146.751 257.178 150.88C254.08 144.747 250.984 139.284 250.438 135.276C249.83 130.602 249.102 127.747 249.83 122.161C250.559 116.576 253.838 108.621 253.777 108.014C253.717 107.408 253.047 104.553 246.369 104.494C239.691 104.432 233.922 105.768 233.254 107.529C232.586 109.289 231.312 113.297 230.461 117.425C229.308 123.497 217.105 145.172 210.123 156.526C207.875 152.095 205.933 148.208 205.507 145.112C204.9 140.438 204.171 137.583 204.9 131.997C205.629 126.411 208.908 118.458 208.847 117.85C208.786 117.244 208.118 114.389 201.439 114.329C194.76 114.268 188.991 115.604 188.325 117.365C187.657 119.126 186.928 123.254 185.532 127.262C184.135 131.27 167.924 167.457 163.674 176.806C161.956 180.59 160.154 184.335 158.27 188.039C158.27 188.039 158.209 188.221 158.027 188.525C157.434 189.686 156.828 190.84 156.206 191.986V192.046C155.295 193.686 154.323 195.203 153.838 195.203C153.473 195.203 152.805 190.832 153.959 184.882C156.387 172.314 162.155 152.763 162.096 152.095C162.096 151.73 163.188 148.331 158.331 146.569C153.594 144.809 151.895 147.723 151.469 147.723C151.045 147.723 150.74 148.755 150.74 148.755C150.74 148.755 156.024 126.776 140.662 126.776C131.069 126.776 117.832 137.28 111.275 146.751C103.821 150.808 96.373 154.876 88.9315 158.956C85.3507 160.96 81.6463 162.964 78.1854 164.845C77.9419 164.603 77.6997 164.298 77.4562 164.056C58.8768 144.202 24.5122 130.176 25.9692 103.522C26.5161 93.8073 29.8546 68.306 91.9679 37.3412C143.09 12.1433 183.771 19.125 190.814 34.6081C200.892 56.7097 169.017 97.7539 116.193 103.703C96.0356 105.951 85.4705 98.1784 82.7999 95.2644C80.007 92.2279 79.5812 92.0456 78.5486 92.6537C76.8494 93.5651 77.9419 96.2969 78.5486 97.875C80.1281 102.003 86.6242 109.289 97.6138 112.872C107.329 116.029 130.947 117.79 159.545 106.74C191.542 94.3529 216.558 59.9271 209.211 31.0873C201.864 1.82165 153.291 -7.83199 107.329 8.50004C80.007 18.2162 50.3768 33.5157 29.0656 53.431C3.74655 77.1094 -0.261257 97.6927 1.37807 106.315C7.26869 136.915 49.4666 156.831 66.3455 171.585C65.4953 172.07 64.7049 172.496 64.0382 172.861C55.5981 177.05 23.4184 193.867 15.4041 211.658C6.29734 231.815 16.8624 246.267 23.8442 248.208C45.52 254.22 67.8025 243.413 79.7635 225.561C91.7244 207.711 90.2674 184.517 84.7427 173.892C84.6815 173.771 84.6216 173.648 84.4992 173.527C86.6854 172.253 88.9315 170.917 91.1177 169.642C95.1357 167.267 99.2048 164.979 103.322 162.78C101.257 168.427 99.7387 175.167 99.0109 184.882C98.0994 196.297 102.774 211.111 108.907 216.939C111.64 219.491 114.857 219.551 116.922 219.551C124.086 219.551 127.305 213.6 130.887 206.557C135.258 197.936 139.205 187.918 139.205 187.918C139.205 187.918 134.287 214.997 147.645 214.997C152.502 214.997 157.42 208.682 159.606 205.465V205.525C159.606 205.525 159.727 205.342 159.971 204.918C160.456 204.129 160.76 203.642 160.76 203.642V203.522C162.702 200.121 167.075 192.41 173.571 179.599C181.95 163.085 190.025 142.441 190.025 142.441C190.025 142.441 190.754 147.48 193.243 155.859C194.701 160.777 197.735 166.181 200.165 171.402C198.222 174.135 197.007 175.652 197.007 175.652L197.068 175.714C195.489 177.777 193.79 180.023 191.907 182.211C185.288 190.103 177.396 199.151 176.303 201.76C175.027 204.857 175.331 207.104 177.761 208.926C179.521 210.262 182.678 210.443 185.896 210.262C191.847 209.836 196.036 208.379 198.099 207.469C201.318 206.315 205.083 204.553 208.603 201.943C215.101 197.146 219.046 190.285 218.683 181.24C218.5 176.26 216.861 171.281 214.857 166.606C215.465 165.757 216.011 164.906 216.619 164.056C226.879 149.059 234.834 132.604 234.834 132.604C234.834 132.604 235.563 137.643 238.051 146.023C239.266 150.273 241.756 154.888 243.941 159.38C234.287 167.214 228.336 176.32 226.211 182.271C222.387 193.322 225.361 198.299 231.008 199.453C233.558 200 237.201 198.785 239.873 197.632C243.273 196.539 247.28 194.658 251.106 191.863C257.603 187.068 263.856 180.388 263.491 171.342C263.309 167.214 262.217 163.145 260.698 159.198C268.895 155.8 279.46 153.917 292.938 155.495C321.84 158.895 327.547 176.927 326.454 184.518C325.361 192.107 319.29 196.236 317.287 197.51C315.282 198.786 314.615 199.211 314.797 200.121C315.04 201.457 316.011 201.397 317.711 201.154C320.08 200.729 332.891 195.021 333.437 181.056C334.348 163.206 317.347 143.716 287.292 143.898V143.898ZM64.3416 219.065C54.7479 229.508 41.3911 233.454 35.6229 230.116C29.4302 226.533 31.8585 211.111 43.6372 200.061C50.8012 193.322 60.0304 187.066 66.1632 183.242C67.5591 182.392 69.6242 181.178 72.1137 179.66C72.5382 179.417 72.7817 179.296 72.7817 179.296L74.2387 178.384C78.5486 194.171 74.421 208.076 64.3416 219.065V219.065ZM134.166 171.585C130.826 179.721 123.844 200.547 119.594 199.393C115.951 198.422 113.704 182.635 118.865 167.031C121.476 159.198 127 149.848 130.219 146.206C135.441 140.376 141.209 138.432 142.605 140.802C144.366 143.898 136.23 166.484 134.166 171.585V171.585ZM191.786 199.15C190.388 199.879 189.054 200.365 188.446 200C188.021 199.757 189.054 198.785 189.054 198.785C189.054 198.785 196.279 191.014 199.132 187.492C200.773 185.428 202.714 183 204.779 180.267V181.056C204.779 190.346 195.792 196.6 191.784 199.15H191.786ZM236.23 189.01C235.197 188.281 235.379 185.853 238.84 178.263C240.176 175.288 243.333 170.31 248.737 165.513C249.344 167.456 249.77 169.339 249.709 171.099C249.648 182.818 241.27 187.189 236.23 189.01Z" fill="#CD6799"/>
</g>
<defs>
<clipPath id="clip0_194_34">
<rect width="333.333" height="250" fill="white" transform="translate(0.466797)"/>
</clipPath>
</defs>
</svg>
