<svg width="292" height="152" viewBox="0 0 292 152" fill="none" xmlns="http://www.w3.org/2000/svg">
<path d="M2 101.401C2.09714 100.628 3.86819 99.427 4.36368 99.0149C7.92468 96.053 12.2926 94.0147 16.4561 92.0605C29.7408 85.825 43.6162 81.3008 57.5978 76.8902C80.3368 69.7171 103.13 62.733 125.665 54.936C137.55 50.8239 151.063 47.0485 161.394 39.5613C162.985 38.4083 166.697 35.559 166.43 33.1182C166.097 30.0804 145.008 36.6726 143.17 37.1749C123.318 42.6005 103.303 45.454 82.7076 45.7998C75.1015 45.9275 67.1593 46.3979 59.6189 45.118C56.8333 44.6451 53.3712 44.1574 52.3909 41.0953C51.3143 37.7325 52.8486 33.7142 54.2407 30.6978C56.6148 25.5534 59.9058 20.7937 63.6954 16.5843C67.6378 12.2052 72.083 7.76184 77.2266 4.78906C79.2265 3.63323 83.3 1.19322 85.8249 2.26637C86.9661 2.75141 87.1882 4.17519 87.3836 5.21519C87.9164 8.05185 88.1296 11.0151 88.2571 13.8912C88.8478 27.2146 86.7637 40.6787 83.6668 53.6065C76.3067 84.3302 62.4984 112.753 50.404 141.764C49.5036 143.924 48.6667 146.1 47.8519 148.293C47.65 148.836 46.8799 150.383 47.2182 149.912C48.5723 148.025 49.5437 145.983 50.5753 143.912C53.7559 137.528 57.3042 131.374 60.3041 124.89C64.2356 116.391 67.7857 107.722 71.4716 99.1172C73.4734 94.4438 75.8747 89.6903 76.7128 84.6288C76.8082 84.0522 77.4304 81.1318 76.5415 80.6743C75.2125 79.9902 72.8515 84.0634 72.465 84.6969C70.6675 87.6431 69.2126 90.9465 69.1079 94.4468C68.8555 102.887 79.9513 102.32 85.3453 100.038C88.1838 98.8368 90.687 96.9408 91.7512 93.9695C92.6416 91.4836 88.5084 95.7137 88.1543 96.1172C86.3692 98.1521 84.6029 100.715 84.0607 103.413C83.8112 104.654 85.4223 103.569 85.9448 103.344C90.0531 101.582 95.2998 98.7018 95.6736 93.6798C95.7644 92.4596 94.7247 93.9484 94.5603 94.1741C93.4415 95.7097 92.1522 97.3609 91.5971 99.2024C91.3133 100.144 91.327 100.46 92.4364 100.276C95.1496 99.8262 97.8495 98.671 100.418 97.7365C102.74 96.8918 104.742 95.8396 106.79 94.4809C107.708 93.8718 105.256 96.0636 104.563 96.9183C104.217 97.3453 103.143 98.8124 104.495 98.4013C106.952 97.654 109.364 96.3134 111.705 95.265C112.979 94.6946 116.525 92.5944 115.165 92.9127C114.584 93.049 112.755 94.6021 112.271 94.3957C111.599 94.109 113.496 89.2718 113.521 89.1969C115.195 84.1595 116.424 79.0409 116.638 73.7198C116.858 68.2644 116.484 62.793 116.741 57.3394C116.888 54.2247 117.214 50.8584 120.612 49.7884C123.145 48.9906 126.519 49.2008 128.714 50.8281C131.179 52.6563 130.075 57.0758 129.519 59.4871C126.823 71.1656 118.528 79.9584 110.969 88.8389C110.78 89.0605 107.726 92.9265 108.314 92.8957C111.062 92.7517 114.508 89.0146 116.484 87.4242C118.188 86.0532 120.267 84.4959 121.503 82.6515C121.99 81.9246 120.492 84.1983 120.492 85.0719C120.492 88.0237 131.203 87.5855 132.242 87.5946C153.983 87.785 176.003 84.0255 197.277 79.9754C218.86 75.8668 239.778 70.1156 260.549 63.0325C269.702 59.9111 278.797 56.4075 288.074 53.6576C291.056 52.7736 289.806 52.7642 289.341 54.1519" stroke="#8427F5" stroke-width="3" stroke-linecap="round"/>
</svg>
