<svg width="251" height="250" viewBox="0 0 251 250" fill="none" xmlns="http://www.w3.org/2000/svg">
<g clip-path="url(#clip0_194_21)">
<path d="M143.823 246.846C144.199 245.995 145.149 245.404 145.839 244.687C156.366 233.649 166.983 222.71 177.367 211.538C180.616 208.537 183.127 204.825 184.703 200.692C186.279 196.559 186.877 192.118 186.451 187.715C186.125 185.83 185.698 183.963 185.17 182.124C182.339 184.812 179.705 187.258 177.053 189.722C172.932 193.556 168.828 197.409 164.671 201.199C162.22 203.698 159.068 205.395 155.632 206.065C152.196 206.735 148.638 206.348 145.427 204.953C142.176 203.759 139.348 201.636 137.294 198.849C135.239 196.061 134.048 192.732 133.869 189.274C133.773 188.829 133.644 188.392 133.484 187.966C130.321 190.654 127.293 193.126 124.292 195.671L61.9081 248.531C61.4781 248.898 61.0122 249.355 60.609 249.713H143.778L143.653 249.633C143.205 249.319 143.438 247.671 143.823 246.846V246.846ZM56.8013 246.846C57.5411 245.883 58.434 245.048 59.4443 244.374L145.776 171.131C151.665 166.132 157.528 161.106 163.363 156.053C164.084 155.55 164.649 154.855 164.994 154.046C166.39 147.964 166.587 141.667 165.576 135.509C164.68 136.136 164.196 136.405 163.784 136.844C156.715 143.169 149.682 149.548 142.578 155.838C140.224 158.207 137.18 159.768 133.883 160.298C130.586 160.827 127.206 160.298 124.229 158.785C121.192 157.352 118.65 155.047 116.927 152.164C115.204 149.281 114.377 145.95 114.553 142.596V139.693C113.254 140.643 112.304 141.279 111.417 141.996C76.8642 169.662 42.3172 197.307 7.77613 224.932C6.21721 226.177 4.35368 228.955 2.31096 226.258C0.268242 223.561 3.37711 222.45 4.94499 221.196C41.7677 191.648 78.6083 162.127 115.467 132.633C121.469 127.822 121.864 125.806 117.957 118.164L115.628 120.35C109.24 126.29 102.78 132.15 96.491 138.188C93.9111 140.677 90.6799 142.385 87.1706 143.115C83.6613 143.845 80.0169 143.568 76.6584 142.316C73.2998 141.063 70.364 138.886 68.19 136.036C66.016 133.186 64.6923 129.78 64.372 126.21C63.1804 127.105 62.15 127.759 61.1735 128.521L6.52182 170.881C5.57924 171.805 4.50429 172.584 3.33232 173.192C2.4478 173.459 1.49797 173.412 0.644531 173.058V249.758H56.6938C56.4855 249.297 56.3867 248.795 56.4054 248.29C56.424 247.784 56.5596 247.29 56.8013 246.846V246.846Z" fill="#FFCEBF"/>
<path d="M208.21 3.35972C206.687 8.35004 205.209 13.3493 203.874 18.3934C202.641 21.9579 202.784 25.8546 204.276 29.3188C205.768 32.783 208.5 35.5648 211.937 37.1183C222.45 42.6444 234.297 45.1267 246.144 44.2857V4.21085C246.012 3.33221 246.061 2.43598 246.287 1.57682C246.538 1.09083 246.855 0.641643 247.228 0.241882H208.174C208.775 0.940707 208.569 2.16813 208.21 3.35972V3.35972Z" fill="#FF6196"/>
<path d="M129.774 89.4498C129.588 93.9228 128.023 98.2289 125.294 101.778C115.537 114.372 104.333 125.775 91.9116 135.751C89.9085 137.606 87.3696 138.778 84.6591 139.1C81.9486 139.422 79.2058 138.877 76.8241 137.543C74.4536 136.53 72.4548 134.808 71.1024 132.614C69.7501 130.419 69.1104 127.86 69.2714 125.287C69.5584 122.127 70.8703 119.148 73.0075 116.802C86.8974 103.558 101.946 91.5854 117.974 81.0281C119.024 80.2049 120.306 79.7326 121.639 79.678C122.971 79.6233 124.288 79.989 125.401 80.7234C126.865 81.6322 128.048 82.9287 128.82 84.469C129.592 86.0094 129.922 87.7333 129.774 89.4498V89.4498ZM119.04 143.752C118.832 141.772 119.087 139.77 119.783 137.905C120.479 136.039 121.599 134.36 123.054 133.001C136.654 120.457 151.246 109.033 166.686 98.8391C167.152 98.5435 167.582 98.2478 168.092 97.9432C169.441 96.9695 171.075 96.4719 172.738 96.5287C174.4 96.5855 175.997 97.1934 177.276 98.2568C178.513 99.3052 179.389 100.717 179.778 102.292C180.168 103.866 180.05 105.524 179.444 107.028C177.49 113.534 173.885 119.423 168.979 124.122C159.016 133.938 148.86 143.556 138.518 152.971C136.96 154.573 134.914 155.611 132.702 155.923C130.49 156.234 128.237 155.801 126.297 154.691C124.26 153.632 122.525 152.073 121.255 150.159C119.986 148.246 119.224 146.041 119.04 143.752V143.752ZM183.691 149.674C181.182 152.362 178.602 154.924 176.192 157.675C175.467 158.738 174.866 159.88 174.4 161.079C175.726 161.474 177.276 162.513 178.351 162.145C183.825 160.309 189.165 158.105 195.176 155.784C193.868 158.795 192.883 161.572 191.494 164.116C185.773 173.731 178.609 182.409 170.252 189.848C167.074 192.912 163.774 195.841 160.352 198.637C158.539 200.141 156.36 201.136 154.036 201.522C151.713 201.907 149.329 201.668 147.128 200.83C144.927 199.991 142.988 198.583 141.51 196.75C140.032 194.916 139.067 192.723 138.715 190.394C138.571 189.099 138.686 187.789 139.052 186.539C139.418 185.288 140.028 184.123 140.847 183.11C153.039 169.871 166.973 158.348 182.266 148.859C182.452 148.787 182.649 148.747 182.848 148.742L183.691 149.674Z" fill="#FF87AF"/>
<path d="M204.243 113.989L219.572 45.8986L230.323 48.4162L224.778 65.2686C219.599 80.9474 214.358 96.6261 209.305 112.323C208.319 115.226 207.029 115.763 204.243 113.989V113.989ZM186.934 154.037C188.555 147.846 190.168 142.121 191.53 136.334C192.857 130.721 195.381 125.461 198.93 120.915C201.107 118.057 203.553 119.195 206.053 119.813C208.364 120.377 208.947 122.071 209.045 124.292C209.41 130.437 207.538 136.506 203.777 141.378C199.299 146.929 193.511 151.279 186.934 154.037V154.037Z" fill="#FF6196"/>
<path d="M250.82 7.57957C250.954 5.58421 250.903 3.58075 250.668 1.59477C250.483 1.04003 250.117 0.563559 249.629 0.241915C249.231 -0.0814786 248.766 -0.311144 248.267 -0.430032C247.98 -0.483788 247.577 -0.188132 247.192 0.232954C246.818 0.632715 246.502 1.0819 246.251 1.56789C246.025 2.42705 245.976 3.32329 246.108 4.20192V44.2679C234.261 45.1088 222.414 42.6265 211.901 37.1004C208.464 35.5469 205.732 32.7651 204.24 29.3009C202.748 25.8367 202.605 21.94 203.838 18.3755C205.173 13.3314 206.651 8.33215 208.174 3.34183C208.532 2.15024 208.738 0.92282 208.174 0.223996C207.86 -0.116199 207.427 -0.321681 206.965 -0.349398C206.373 -0.343014 205.8 -0.141457 205.334 0.223996C204.664 0.62475 204.13 1.21791 203.802 1.92626C202.01 7.30183 200.433 12.7312 199.062 18.2142C198.545 20.375 198.406 22.609 198.65 24.8172C198.997 28.8129 200.483 32.6251 202.932 35.8013C205.381 38.9775 208.69 41.3842 212.466 42.7358C214.159 43.4436 215.153 44.1424 214.679 46.3733C214.024 49.2044 213.388 52.0356 212.743 54.8757C208.353 74.1202 203.987 93.3737 199.645 112.636C199.522 113.495 199.145 114.297 198.561 114.939C195.699 117.214 193.294 120.011 191.474 123.181C189.155 127.366 187.55 131.908 186.726 136.62C186.567 138.123 186.024 139.56 185.148 140.792C184.273 142.024 183.094 143.01 181.726 143.653C177.99 145.544 174.559 147.99 170.411 150.534C170.687 145.546 170.633 140.544 170.249 135.563C169.934 134.031 170.001 132.444 170.445 130.944C170.888 129.444 171.695 128.076 172.794 126.962C178.258 121.549 182.153 114.756 184.065 107.305C184.636 105.578 184.792 103.741 184.522 101.942C184.251 100.144 183.561 98.4339 182.508 96.9512C181.454 95.4684 180.066 94.2544 178.457 93.4072C176.847 92.5601 175.061 92.1036 173.242 92.0746C170.297 92.0418 167.406 92.8634 164.919 94.4399C156.37 100.278 147.969 106.33 139.725 112.591C134.824 116.283 130.21 120.368 125.462 124.238C125.257 124.019 125.08 123.775 124.933 123.513C124.842 122.853 124.665 122.208 124.405 121.595C120.436 115.467 123.186 111.015 127.496 106.436C131.985 101.73 134.466 95.4608 134.412 88.9568C134.551 85.6429 133.514 82.3867 131.483 79.7646C130.401 78.4335 129.067 77.3284 127.558 76.5123C125.415 75.3394 122.965 74.8498 120.535 75.1092C118.106 75.3686 115.814 76.3647 113.967 77.9637L111.467 79.7556C105.76 83.841 99.9817 87.819 94.4896 92.1911C86.472 98.5923 78.6268 105.207 70.9625 112.027C67.3788 115.19 64.7627 119.508 61.0446 122.447C41.6567 137.758 22.0627 152.792 2.54045 167.924C1.86917 168.324 1.25193 168.809 0.703793 169.366C0.647364 169.448 0.599336 169.535 0.560444 169.626C0.148316 170.585 -0.201095 172.171 0.282707 172.753C0.4013 172.879 0.544634 172.98 0.703793 173.049C1.55723 173.403 2.50706 173.45 3.39158 173.183C4.56355 172.575 5.6385 171.796 6.58109 170.872L61.2327 128.512C62.2093 127.751 63.2396 127.061 64.4312 126.201C64.7516 129.771 66.0752 133.177 68.2493 136.027C70.4233 138.877 73.3591 141.054 76.7177 142.307C80.0762 143.559 83.7206 143.837 87.2299 143.106C90.7392 142.376 93.9703 140.668 96.5503 138.179C102.822 132.141 109.299 126.281 115.687 120.341L118.017 118.155C121.923 125.797 121.529 127.813 115.526 132.624C78.6377 162.142 41.7762 191.666 4.94154 221.196C3.37366 222.45 0.273748 223.588 2.30751 226.258C4.34127 228.928 6.21376 226.177 7.77267 224.932C42.3316 197.331 76.8667 169.695 111.378 142.023C112.274 141.306 113.215 140.67 114.514 139.72V142.623C114.338 145.977 115.164 149.307 116.887 152.19C118.611 155.073 121.152 157.379 124.19 158.812C127.167 160.325 130.547 160.854 133.844 160.325C137.141 159.795 140.185 158.234 142.538 155.865C149.643 149.593 156.676 143.196 163.745 136.871C164.193 136.468 164.713 136.163 165.537 135.536C166.548 141.694 166.35 147.99 164.954 154.073C164.61 154.882 164.045 155.577 163.324 156.08C157.482 161.127 151.62 166.153 145.737 171.158L59.4409 244.409C58.4305 245.084 57.5377 245.919 56.7979 246.882C56.5618 247.322 56.4294 247.809 56.4108 248.308C56.3921 248.806 56.4878 249.302 56.6904 249.758C57.0952 250.061 57.5632 250.27 58.0595 250.367C58.5558 250.465 59.0678 250.45 59.5574 250.323C59.9437 250.21 60.2992 250.011 60.5966 249.74C61.0446 249.382 61.4926 248.925 61.8957 248.558L124.279 195.698C127.281 193.153 130.309 190.645 133.472 187.993C133.632 188.419 133.76 188.856 133.857 189.301C134.036 192.759 135.226 196.088 137.281 198.876C139.336 201.663 142.164 203.785 145.414 204.98C148.625 206.374 152.184 206.762 155.62 206.092C159.056 205.422 162.208 203.725 164.659 201.226C168.816 197.436 172.919 193.583 177.041 189.749C179.728 187.285 182.327 184.812 185.158 182.151C185.685 183.99 186.113 185.857 186.439 187.742C186.851 192.13 186.245 196.554 184.67 200.67C183.094 204.786 180.591 208.484 177.354 211.475C166.97 222.656 156.354 233.596 145.826 244.624C145.136 245.341 144.187 245.932 143.811 246.784C143.434 247.635 143.192 249.301 143.64 249.66L143.766 249.74C144.705 250.197 145.762 250.356 146.794 250.197C147.083 250.138 147.341 249.975 147.52 249.74C147.771 249.48 148.012 249.158 148.254 248.916C156.784 240.1 165.358 231.329 173.824 222.45C177.242 218.988 180.454 215.329 183.446 211.493C187.348 207.174 189.935 201.831 190.903 196.091C191.871 190.352 191.18 184.456 188.912 179.096C188.668 177.901 188.906 176.658 189.575 175.638C190.157 174.634 190.802 173.658 191.465 172.69C193.586 169.936 195.353 166.926 196.724 163.731C199.373 155.89 203.439 148.602 208.721 142.229C211.148 139.151 212.819 135.545 213.597 131.702C214.375 127.86 214.239 123.888 213.2 120.108C212.833 118.671 212.833 117.164 213.2 115.727C217.734 101.688 222.401 87.6935 227.024 73.6902L233.206 54.9294L235.115 49.1328C239.182 49.1328 243.017 49.0521 246.833 49.1328C250.005 49.2223 250.973 47.7351 250.937 44.6531C250.749 32.2893 250.82 19.9344 250.82 7.57957V7.57957ZM91.9094 135.751C89.9063 137.605 87.3674 138.777 84.6569 139.099C81.9464 139.421 79.2036 138.876 76.8219 137.543C74.4514 136.53 72.4526 134.808 71.1002 132.614C69.7478 130.419 69.1082 127.859 69.2692 125.287C69.5562 122.127 70.8681 119.147 73.0053 116.802C86.8952 103.558 101.944 91.5851 117.972 81.0278C118.847 80.4094 119.842 79.982 120.893 79.7735C121.597 79.6435 122.32 79.6435 123.025 79.7735C123.869 79.9379 124.675 80.2601 125.399 80.7232C126.864 81.6327 128.049 82.9306 128.82 84.4727C129.592 86.0147 129.921 87.7406 129.771 89.4585C129.586 93.9316 128.021 98.2377 125.292 101.786C115.535 114.378 104.33 125.778 91.9094 135.751V135.751ZM138.498 153.034C136.94 154.635 134.894 155.674 132.682 155.985C130.469 156.296 128.216 155.863 126.277 154.754C124.236 153.693 122.498 152.129 121.229 150.21C119.959 148.292 119.199 146.081 119.02 143.788C118.812 141.807 119.066 139.806 119.763 137.94C120.459 136.075 121.579 134.396 123.034 133.036C136.634 120.493 151.225 109.068 166.666 98.8747C167.132 98.5791 167.562 98.2834 168.072 97.9788C169.421 97.0051 171.055 96.5075 172.718 96.5643C174.38 96.6211 175.976 97.229 177.256 98.2924C178.493 99.3408 179.369 100.753 179.758 102.327C180.147 103.902 180.03 105.559 179.424 107.064C177.47 113.57 173.865 119.459 168.959 124.158C159.077 134.031 148.801 143.537 138.516 152.998L138.498 153.034ZM191.456 164.152C185.743 173.751 178.591 182.417 170.249 189.847C167.072 192.911 163.772 195.841 160.349 198.636C158.537 200.14 156.358 201.136 154.034 201.521C151.711 201.907 149.326 201.668 147.126 200.83C144.925 199.991 142.986 198.583 141.508 196.75C140.03 194.916 139.065 192.723 138.713 190.394C138.569 189.099 138.684 187.789 139.05 186.538C139.416 185.288 140.026 184.123 140.845 183.11C153.037 169.87 166.971 158.348 182.264 148.859C182.45 148.786 182.647 148.747 182.846 148.742L183.742 149.638C181.233 152.326 178.653 154.888 176.243 157.639C175.518 158.702 174.917 159.844 174.451 161.043C175.777 161.437 177.327 162.477 178.402 162.109C182.73 160.658 186.985 158.974 191.546 157.182L195.228 155.748C193.848 158.794 192.863 161.572 191.474 164.116L191.456 164.152ZM203.757 141.44C200.415 145.695 196.226 149.209 191.456 151.761C189.981 152.586 188.467 153.356 186.914 154.073C188.508 147.972 190.103 142.318 191.456 136.602L191.51 136.369C192.837 130.757 195.361 125.497 198.91 120.95C201.087 118.092 203.533 119.23 206.033 119.848C208.344 120.413 208.927 122.106 209.025 124.328C209.393 130.467 207.528 136.532 203.775 141.404L203.757 141.44ZM224.722 65.2864C219.543 80.9651 214.302 96.6439 209.249 112.341C208.299 115.288 207.009 115.826 204.223 114.052L217.51 54.9832L219.552 45.9164L230.303 48.4339L228.144 54.9832L224.722 65.2864Z" fill="black"/>
</g>
<defs>
<clipPath id="clip0_194_21">
<rect width="250" height="250" fill="white" transform="translate(0.453125)"/>
</clipPath>
</defs>
</svg>
