<svg width="251" height="250" viewBox="0 0 251 250" fill="none" xmlns="http://www.w3.org/2000/svg">
<path d="M70.7656 107.031C78.0573 77.8646 96.2865 63.2812 125.453 63.2812C169.203 63.2812 174.672 96.0937 196.547 101.562C211.13 105.208 223.891 99.7396 234.828 85.1562C227.536 114.323 209.307 128.906 180.141 128.906C136.391 128.906 130.922 96.0938 109.047 90.625C94.4635 86.9792 81.7031 92.4479 70.7656 107.031ZM16.0781 172.656C23.3698 143.49 41.599 128.906 70.7656 128.906C114.516 128.906 119.984 161.719 141.859 167.188C156.443 170.833 169.203 165.365 180.141 150.781C172.849 179.948 154.62 194.531 125.453 194.531C81.7031 194.531 76.2344 161.719 54.3594 156.25C39.776 152.604 27.0156 158.073 16.0781 172.656Z" fill="#44A8B3"/>
</svg>
